<svg xmlns="http://www.w3.org/2000/svg" width="181.5" height="70.667" viewBox="0 0 181.5 70.667"><path fill="#F47722" d="M50.336 61.622h-37.243v-5.192l18.621-20.69c1.716-1.9 3.143-3.581 4.275-5.036 1.132-1.456 2.03-2.79 2.693-4.001.663-1.209 1.126-2.341 1.385-3.396.26-1.056.391-2.13.391-3.221 0-1.404-.221-2.726-.663-3.963-.442-1.234-1.082-2.309-1.914-3.219-.832-.912-1.861-1.635-3.083-2.167-1.227-.532-2.631-.802-4.216-.802-1.928 0-3.599.289-5.017.861-1.421.571-2.598 1.366-3.535 2.381-.936 1.015-1.637 2.23-2.108 3.648-.468 1.418-.703 2.988-.703 4.703h-7.219c0-2.394.396-4.658 1.189-6.791.795-2.133 1.974-3.995 3.535-5.583 1.56-1.587 3.5-2.844 5.817-3.767 2.316-.926 4.995-1.387 8.043-1.387 2.678 0 5.078.365 7.201 1.093 2.122.73 3.917 1.765 5.388 3.104 1.469 1.342 2.597 2.948 3.376 4.823.782 1.871 1.172 3.94 1.172 6.206 0 1.667-.286 3.344-.861 5.034-.571 1.695-1.339 3.378-2.301 5.056-.964 1.679-2.095 3.344-3.399 4.996-1.299 1.654-2.665 3.275-4.099 4.861l-15.261 16.554h28.537l-.001 5.895zm38.139-19.091h7.884v5.896h-7.884v13.195h-7.258v-13.196h-25.885v-4.258l25.454-39.386h7.689v37.749zm-24.943 0h17.685v-27.873l-.862 1.559-16.823 26.314zm41.537 23.969h-6.21l23.733-61.72h6.169l-23.692 61.72zm67.455-57.659l-23.545 52.78h-7.571l23.462-50.907h-30.762v-5.933h38.416v4.06z"/></svg>