<svg xmlns="http://www.w3.org/2000/svg" width="72" height="72" viewBox="185.438 0 72 72" enable-background="new 185.438 0 72 72"><path d="M243.287 34.939c-2.472 1.138-3.053.453-2.994-2.07.043-1.813 1.796-1.66 2.438-1.377 2.267 1 1.907-3.678.753-5.466-.017-.025-4.422 1.865-6.415.976-.582-.257-.847-.924-.59-1.505.094-.214.223-.428.351-.642.488-.804.206-1.865-.615-2.318-.693-.376-1.617-.488-2.429-.334-1.061.206-1.608 1.386-1.104 2.335.256.479.488.95.273 1.377-.136.265-.41.428-.709.437-1.95.06-4.003-1.069-5.611-1.976l-.094.034c-.615 1.933-2.899 4.345-1.625 5.405.701.582 1.471-.239 2.07-.299h.009c2.112-.393 2.796 2.814 2.694 4.046-.171 2.121-1.702 3.472-3.584 2.531-.479-.239-1.154.223-1.043.744.351 1.591 1.506 4.32 1.54 4.311 1.129-.359 3.618-1.565 5.166-1.694.847-.068 1.745.642 1.043 1.729-1.702 2.643 1.762 3.284 3.104 2.71 1.497-.632 1.309-1.488.539-3.113-.239-.514.069-.924.309-1.138 1.582-1.386 4.679.24 6.535 1.009.025.009 1.95-4.062.983-5.482-.225-.324-.678-.375-.994-.23zm-17.68-10.794v-.017c-1.403-.445-4.55-1.822-5.662-.564-.205.23-.342.744-.12.958 1.967 1.908-.855 4.517-2.806 3.858-.735-.249-2.711-1.479-1.668-2.832.188-.239 1.061-1.069.462-1.607-1.591-1.412-4.413.068-6.218.624.582 1.642 2.284 3.977 1.711 5.97-.171.59-1.069.976-1.565.616-1.018-.727-1.762-.812-2.155-.291-.847 1.095-.685 2.583.008 3.464 1.112 1.402 1.771.274 2.857.06.513-.094.95.265 1.061.779.504 2.317-1.146 3.617-1.753 5.285 1.034 1.258 3.156 2.429 4.849 2.156.564-.094 1.249-.77.796-1.445-1.497-2.215.025-3.917 2.283-3.969 1.831-.043 3.028 1.702 2.318 3.473-.256.641-.778 2.001.804 1.984 1.634-.017 3.609-.753 4.807-1.334-.428-1.71-1.745-3.566-1.377-5.363.137-.685.83-1.163 1.668-.838 1.591.616 2.626.521 2.788-1.565.077-1.009-.154-2.48-1.197-3.037-.436-.231-1.154-.085-1.865.351-.821.505-1.873.239-2.053-.701-.342-1.728 1.548-4.371 2.027-6.004v-.011zm22.11-13.933c-.632-.83-.146-2.044.881-2.232.582-.111 1.445.077 1.745-.556.547-1.172-.573-3.327-2.062-4.08-1.103-.556-2.198.017-2.412 1.232-.881 5.072-3.968-2.07-4.362-4.576-1.514.556-4.909 1.437-5.679 2.934-.359.702.026 1.548.778 1.753.71.197 1.907-.085 2.01.804-.077 1.292-1.266 2.506-2.403 2.891-.89.299-1.754.086-2.062-.992l-.068-.316c-.12-.736-.864-1.215-1.565-.967-.248.085-.487.231-.718.419-1.009.812-1.813 2.42-2.129 3.395 1.223.916 5.465 2.985 5.893 4.311.659 2.104-2.703 1.129-2.968 2.814-.171 1.052 1.043 2.968 2.72 3.259.385.068.778-.111.992-.436.325-.514.351-.993.488-1.548l.103-.274c.068-.128.154-.325.213-.394.334-.368.898-.393 1.283-.085 1.66 1.326 1.719 3.858 2.532 5.62 1.924-.428 4.14-1.479 4.927-3.413-.231-1.223-1.685-.813-2.438-1.411-.761-.539-.162-1.822.753-2.763.744-.761 1.685-1.3 2.301-1.026 1.223.539.205 2.429 1.275 3.353 2.318-.061 3.515-3.08 4.233-4.996-1.233-.616-3.372-1.557-4.261-2.72zm-38.848 3.336c1.429-.984 2.523-1.001 3.404.521.53.915.65 3.9-1.078 4.011-.667.042-1.377-.231-1.719-.411-.488-.248-1.505-.085-1.66.437-.573 1.958.642 4.037 1.522 5.679 1.933-.479 5.927-2.155 7.381-.163.625.855-.676 1.822-.812 2.181-.351.855.376 1.66 1.112 1.813 1.822.385 3.413-1.009 1.924-3.148-.188-.265-.213-.616-.06-.906 1.095-2.121 5.517-.821 6.962-.359.565-1.377 1.138-2.703.941-4.148-.128-.975-1.292-1.437-2.079-.838-.795.599-1.454 1.198-2.258.24-.864-1.035-.701-3.241.744-4.045.299-.171.65-.282.966-.137 3.849 1.779 2.677-4.439 1.189-6.542-.06-.12-5.542 3.019-7.45 1.188-.248-.24-.351-.821.197-1.334 1.035-.958.89-1.762-.086-2.301-1.18-.658-3.036-.701-3.737.488-.299.504-.24.983-.026 1.317.53.847 1.54 1.694.736 2.523-.085.085-.197.146-.316.163-2.506.393-6.466-1.711-6.586-1.762-.539 2.001-.847 3.122-.625 4.935.191 1.496 1.174.769 1.414.598zm29.337 26.549c-1.035.24-.291 1.429-.137 2.344.137.812-.838 2.557-3.387 2.591-2.831.043-4.174-1.693-2.899-3.549.496-.744.128-1.608-1.274-1.052s-4.961 2.198-7.159 2.703c-2.198.496-3.259.701-3.866.043-.607-.659-.787-1.437-.385-2.224.932-1.839-.531-3.062-1.583-2.934-.941.111-2.694.496-1.411 2.899.582 1.086.214 2.146-.736 2.497-1.18.437-4.636-.607-5.91-1.958-1.266-1.352-.188-2.267.342-3.011.521-.744.915-1.779.923-2.335.009-.427-.051-1.154-.975-.735-.924.428-1.831.915-2.891-.881-1.061-1.805-.47-3.772.539-4.49 1.009-.71 1.685.103 2.608.325.479.119.847-.231.454-1.608s-.727-2.541-1.753-4.371c-1.121-2.019-2.523-5.859-1.309-7.022 1.214-1.163 2.395-.026 3.532-.077 1.095-.051 1.121-1.693.701-2.617-.419-.924-1.557-1.197-2.839-.06-1.454 1.292-2.463-.907-2.258-3.071.163-1.745.659-3.318.616-3.302-3.387 1.086-7.193 8.134-8.211 12.111-1.026 4.012-1.633 4.824-.513 7.398.923 2.113.145 4.2-1.471 6.372-1.608 2.181-3.678 4.747-3.507 6.116.188 1.368 1.864 1.676 2.489 1.924.624.248 2.181.231.786 3.293-.393.864-1.129 1.941 1.009 3.104-1.171.71-.975 1.061-.983 1.523-.008.838 1.608 1.266 1.112 3.318-.496 2.053-.607 4.986 1.369 5.346 3.806.702 6.013-.06 8.459-.025 1.497.017 3.054.906 3.472 2.198.616 1.916 1.027 4.781.745 7.271-.222 1.941-.582 2.643-1.181 3.849h30.398c-3.353-8.015-4.533-13.274-4.251-18.697.103-1.881 1.121-3.977 3.233-6.834.838-1.137 1.865-2.891 2.839-4.935l-4.268 5.602 4.285-5.645c-2.573-1.394-4.189-1.522-4.754-1.394z" fill="#F47722"/></svg>