<svg xmlns="http://www.w3.org/2000/svg" width="191.98" height="148.113" viewBox="0 0 191.98 148.113"><path fill="#9BD0F0" d="M67.949 64.132c0-20.733 10.702-38.955 26.875-49.478-8.855-5.396-19.246-8.522-30.375-8.522-32.309 0-58.5 26.19-58.5 58.5 0 32.309 26.191 58.5 58.5 58.5 11.463 0 22.145-3.315 31.17-9.014-16.615-10.436-27.67-28.916-27.67-49.986m59.5-58c-11.129 0-21.519 3.127-30.375 8.522 16.174 10.522 26.875 28.744 26.875 49.478 0 21.07-11.054 39.55-27.67 49.986 9.026 5.698 19.707 9.014 31.17 9.014 32.31 0 58.5-26.191 58.5-58.5 0-32.31-26.19-58.5-58.5-58.5"/><path fill="#26749D" d="M163.537 148.113h-9.132c-13.228 0-25.554-7.062-32.298-18.466-7.543-.562-14.843-2.411-21.707-5.498l.819-1.824c6.81 3.062 14.061 4.866 21.552 5.364l.535.035.267.466c6.327 11.056 18.142 17.923 30.832 17.923h.565c-1.109-.554-2.173-1.219-3.177-1.991-2.108-1.623-3.828-3.622-5.114-5.942-1.574-2.838-2.406-6.064-2.406-9.33v-3.453l.715-.213c9.438-2.811 18.175-7.839 25.265-14.541l1.107-1.072c8.518-8.253 14.385-18.733 16.966-30.311 6.274-27.128-5.678-54.759-29.743-68.763-27.844-16.203-64.247-8.299-82.876 17.995-7.661 10.813-11.682 23.481-11.628 36.636v.878h-2v-.874c-.056-13.569 4.093-26.64 11.996-37.795 19.221-27.132 56.782-35.286 85.514-18.568 24.828 14.448 37.16 42.954 30.687 70.935-2.663 11.95-8.725 22.777-17.523 31.304l-1.116 1.081c-7.146 6.755-15.898 11.857-25.362 14.796v1.966c0 2.928.744 5.818 2.155 8.36 1.152 2.08 2.695 3.872 4.585 5.327 3.039 2.34 6.678 3.576 10.523 3.576v1.999zm-125.96 0h-9.132v-2c3.845 0 7.483-1.236 10.522-3.576 1.889-1.455 3.433-3.247 4.586-5.327 1.409-2.542 2.154-5.434 2.154-8.36v-1.966c-9.463-2.938-18.216-8.041-25.354-14.788l-1.124-1.089c-8.798-8.527-14.859-19.354-17.525-31.312-6.472-27.973 5.86-56.479 30.688-70.927 17.376-10.112 38.149-11.548 56.991-3.942l3.477 1.56-.82 1.825-3.442-1.546c-18.229-7.357-38.361-5.967-55.199 3.832-24.066 14.004-36.019 41.635-29.745 68.755 2.582 11.584 8.449 22.064 16.968 30.318l1.114 1.081c7.082 6.693 15.818 11.722 25.258 14.532l.714.213v3.453c0 3.265-.832 6.492-2.405 9.33-1.287 2.32-3.008 4.319-5.115 5.942-1.004.772-2.066 1.438-3.177 1.991h.566c12.689 0 24.504-6.867 30.832-17.923l.266-.466.535-.035c10.647-.708 21.009-4.147 29.962-9.945l3.593-2.545c6.894-5.199 12.588-11.655 16.903-19.171l.562-.979c4.972-9.133 7.629-19.487 7.672-29.921l.049-1.043 1.998.095-.049.999c-.043 10.722-2.783 21.403-7.924 30.846l-.574 1c-4.449 7.75-10.323 14.408-17.457 19.79l-3.652 2.585c-9.123 5.909-19.618 9.44-30.419 10.248-6.745 11.405-19.07 18.466-32.297 18.466m29.493-86.944c-.551-.05-.961-.53-.921-1.08h.011c.04-.55.52-.96 1.069-.92.55.05.96.53.92 1.08-.04.52-.479.92-1 .92h-.079zm.39-3.981c-.54-.09-.92-.59-.84-1.14s.59-.92 1.14-.84c.54.08.92.59.84 1.14-.08.49-.5.851-.99.851l-.15-.011m.66-3.949c-.54-.11-.88-.65-.761-1.19.11-.54.65-.88 1.19-.76.53.12.88.649.76 1.189-.1.471-.52.79-.979.79l-.21-.029m.92-3.89c-.53-.149-.84-.71-.681-1.239.15-.53.7-.83 1.23-.681.54.15.84.71.689 1.24-.13.44-.529.72-.959.72-.099 0-.189-.01-.279-.04m1.18-3.82c-.52-.19-.79-.771-.6-1.29.189-.521.76-.78 1.279-.601.521.19.79.771.601 1.29-.15.4-.53.66-.94.66-.11.001-.23-.019-.34-.059m1.429-3.74c-.5-.23-.729-.82-.51-1.32.22-.51.811-.74 1.32-.51.51.22.729.81.51 1.32-.16.369-.53.59-.92.59-.129 0-.27-.02-.4-.08m1.681-3.63c-.49-.261-.67-.87-.42-1.36.26-.49.859-.67 1.35-.42.49.26.68.87.42 1.35-.18.351-.52.54-.88.54-.16 0-.321-.04-.47-.11m1.92-3.52c-.471-.29-.62-.899-.33-1.37.29-.47.91-.62 1.38-.33s.62.9.33 1.381v-.011c-.19.311-.521.48-.86.48-.17 0-.35-.05-.52-.15m2.149-3.37c-.449-.319-.56-.949-.229-1.399.31-.45.939-.55 1.39-.23.45.32.55.94.24 1.391-.2.279-.51.42-.82.42-.201-.002-.4-.062-.581-.182m2.371-3.22c-.43-.35-.49-.979-.14-1.41.35-.43.979-.49 1.399-.149.431.35.5.979.15 1.409-.2.25-.49.37-.78.37-.219 0-.449-.07-.629-.22m2.58-3.06c-.41-.38-.43-1.011-.05-1.42.37-.4 1.01-.421 1.41-.051.399.38.43 1.011.05 1.42-.2.21-.46.311-.73.311-.251 0-.49-.08-.68-.26m2.77-2.89c-.38-.399-.36-1.029.04-1.41.399-.38 1.04-.359 1.42.051.37.399.359 1.029-.051 1.409-.189.181-.439.271-.68.271-.269-.001-.529-.111-.729-.321m2.96-2.69c-.351-.42-.29-1.05.14-1.4.42-.35 1.05-.29 1.4.13.35.431.29 1.061-.13 1.41-.19.15-.41.23-.641.23-.289 0-.57-.131-.769-.37m3.13-2.48c-.33-.45-.22-1.08.229-1.399.44-.32 1.07-.221 1.391.229.319.45.22 1.07-.23 1.4-.17.12-.38.18-.58.18-.31 0-.621-.14-.81-.41m3.28-2.281c-.29-.47-.141-1.09.319-1.38.47-.29 1.09-.14 1.38.33.29.46.15 1.08-.319 1.37-.17.101-.351.15-.53.15-.33.001-.66-.159-.85-.47m3.43-2.049c-.26-.489-.07-1.09.42-1.35.48-.26 1.09-.08 1.35.41.261.489.07 1.09-.41 1.35-.149.08-.31.12-.47.12-.36 0-.71-.191-.89-.53m3.559-1.82c-.229-.5 0-1.091.5-1.32.511-.23 1.101 0 1.33.5.22.51 0 1.1-.51 1.32-.13.06-.271.09-.41.09-.379 0-.74-.221-.91-.59m3.67-1.57c-.189-.521.07-1.1.591-1.29.52-.19 1.09.07 1.289.59.19.521-.079 1.09-.59 1.29-.119.04-.239.061-.35.061-.409-.001-.789-.251-.94-.651m3.771-1.33c-.16-.53.15-1.09.68-1.24.53-.16 1.08.141 1.24.67.16.53-.15 1.09-.68 1.24-.09.03-.19.05-.28.05-.43 0-.83-.29-.96-.72m3.85-1.07c-.12-.54.221-1.08.76-1.199.541-.12 1.07.22 1.2.76.12.54-.22 1.069-.76 1.2l-.22.02c-.46-.001-.87-.321-.98-.781m3.919-.81c-.08-.55.29-1.061.84-1.14.541-.091 1.051.289 1.141.829.08.551-.29 1.061-.84 1.141l-.15.01c-.491 0-.91-.35-.991-.84m3.96-.55c-.05-.551.36-1.03.91-1.08s1.03.359 1.08.91c.05.55-.35 1.029-.91 1.08h-.09c-.509 0-.939-.39-.99-.91m3.991-.28c-.01-.55.431-1.01.98-1.021.55-.02 1.01.421 1.02.98.01.55-.43 1-.979 1.02h-.021c-.54 0-.991-.439-1-.979"/><path fill="#26749D" d="M66.22 125.129c-.02-.55.41-1.02.96-1.04.561-.02 1.021.41 1.04.96.021.561-.41 1.021-.96 1.04h-.04c-.531 0-.98-.42-1-.96m3.99-.22c-.05-.55.35-1.04.899-1.09.54-.061 1.04.34 1.091.89.06.55-.341 1.04-.891 1.09l-.1.01c-.509 0-.939-.38-.999-.9m3.97-.47c-.09-.551.271-1.07.82-1.16.54-.09 1.06.27 1.149.819.101.54-.27 1.061-.81 1.15l-.17.021c-.48.001-.899-.35-.989-.83m3.929-.75c-.13-.53.2-1.07.74-1.2s1.08.2 1.21.729c.13.54-.2 1.08-.739 1.21l-.24.03c-.45.001-.86-.309-.971-.769m3.87-1c-.159-.53.13-1.091.66-1.25.53-.17 1.09.119 1.25.649.17.53-.13 1.09-.649 1.25-.101.04-.2.05-.301.05-.429.001-.819-.269-.96-.699m3.8-1.26c-.199-.52.051-1.1.57-1.3.51-.2 1.09.061 1.29.57.2.52-.05 1.1-.569 1.3-.12.04-.24.07-.36.07-.4 0-.78-.25-.931-.64m3.691-1.51c-.229-.5-.02-1.1.49-1.33.5-.24 1.09-.02 1.33.48.229.5.01 1.09-.49 1.33-.13.06-.28.09-.42.09-.38 0-.74-.21-.91-.57m3.59-1.76c-.26-.48-.09-1.09.4-1.36.479-.27 1.09-.09 1.35.391.271.489.101 1.1-.39 1.359-.15.09-.32.13-.48.13-.35 0-.69-.19-.88-.52m3.469-1.99c-.3-.46-.17-1.08.301-1.38.46-.3 1.08-.17 1.38.3.3.46.16 1.08-.3 1.38-.17.11-.351.16-.54.16-.33 0-.65-.16-.841-.46m3.321-2.22c-.33-.44-.229-1.07.21-1.4.44-.33 1.07-.229 1.4.21.33.44.24 1.07-.21 1.4-.18.13-.38.2-.59.2-.31 0-.61-.14-.81-.41m3.17-2.429c-.35-.421-.3-1.061.12-1.41.42-.36 1.05-.311 1.41.109s.3 1.051-.12 1.41c-.18.16-.41.24-.64.24-.29 0-.57-.12-.77-.349m3.009-2.641c-.39-.399-.38-1.03.021-1.42.39-.38 1.03-.37 1.41.021.39.399.38 1.029-.021 1.42-.189.189-.439.279-.699.279-.261 0-.52-.1-.711-.3m2.821-2.84c-.41-.37-.439-1-.07-1.41.37-.41 1-.439 1.41-.07.41.37.44 1 .07 1.41-.189.221-.47.33-.74.33-.241 0-.48-.08-.67-.26m2.629-3.01c-.43-.34-.51-.971-.17-1.4.351-.439.97-.51 1.41-.17.43.34.5.97.16 1.4h.01c-.2.25-.5.38-.79.38-.219 0-.439-.07-.62-.21m2.42-3.18c-.449-.319-.569-.939-.26-1.39.32-.46.94-.58 1.39-.26.461.31.57.93.261 1.39-.19.28-.5.431-.82.431-.2 0-.39-.061-.571-.171m2.21-3.34c-.479-.279-.63-.899-.35-1.37.28-.479.89-.63 1.37-.35.479.28.63.89.35 1.37-.189.31-.52.49-.859.49-.17 0-.35-.05-.511-.14m1.981-3.48c-.49-.25-.69-.851-.44-1.34.25-.49.851-.69 1.341-.44.5.24.689.85.439 1.34-.17.351-.52.55-.89.55-.15 0-.3-.03-.45-.11m1.75-3.6c-.51-.22-.75-.8-.54-1.31.22-.51.81-.75 1.32-.53.5.21.739.8.529 1.311-.17.38-.54.609-.93.609-.129 0-.259-.03-.379-.08m1.49-3.71c-.521-.18-.79-.75-.61-1.279.18-.521.75-.79 1.271-.61.52.18.8.75.619 1.27-.149.41-.529.671-.949.671-.111-.001-.222-.022-.331-.052m1.25-3.8c-.53-.149-.851-.7-.7-1.229.14-.53.69-.851 1.22-.7.54.14.851.689.71 1.22-.13.45-.53.74-.97.74l-.26-.031m.99-3.88c-.551-.11-.9-.63-.791-1.18.11-.54.641-.891 1.181-.78s.89.64.78 1.18c-.091.471-.511.8-.98.8l-.19-.02m.72-3.93c-.55-.07-.931-.58-.86-1.12.07-.55.58-.94 1.12-.86.55.07.94.57.86 1.12-.061.5-.49.87-.99.87l-.13-.01m.46-3.97c-.55-.04-.971-.52-.93-1.069v.01c.039-.56.51-.97 1.06-.94.55.04.97.511.93 1.07h.011c-.041.521-.48.93-1 .93h-.071zm-61.801 4.407l-10.414-10.414h6.414v2h-1.586l5.586 5.586 5.586-5.586h-1.586v-2h6.414zm76.789-8.419h-6.414v-2h1.586l-5.586-5.586-5.586 5.586h1.586v2h-6.414l10.414-10.414z"/><path fill="#F47823" d="M102.509 53.508h-12.234v9.299h-9.292v12.226h9.292v9.294h12.234v-9.294h9.294v-12.226h-9.294z"/></svg>