<svg xmlns="http://www.w3.org/2000/svg" width="1430.457" height="363.882" viewBox="0 0 1430.457 363.882"><path opacity=".5" fill="#9BD0F0" d="M85.589 188.73h4.483v17.179h-4.483zm41.531 1.211h4.483v16.98h-4.483zm-123.214 172.626h-3.906l16-98.875c2.148-16.215 12.887-30.012 28.019-35.942l28.644-10.8 1.581 4.197-28.616 10.791c-13.585 5.327-23.25 17.747-25.193 32.408l-16.529 98.221zm107.763-74.991h-7.438l-30.354-43.653h-1.087l-7.983 8.075h-7.491l14.236-34.216 18.521-18.748v21.274l21.596 67.268zm-40.75-48.137h5.302l28.396 40.842-19.025-59.269v-11.059l-10.236 10.358-10.516 25.28 6.079-6.152z"/><path opacity=".5" fill="#9BCEEE" d="M59.168 329.53h-.512v-4.483h.512c5.6 0 10.156-4.557 10.156-10.156v-32.934c0-11.576-9.417-20.996-20.99-20.996-11.575 0-20.993 9.42-20.993 20.996v32.934c0 5.6 4.557 10.156 10.156 10.156h.226v4.483h-.226c-8.072 0-14.64-6.566-14.64-14.64v-32.934c0-14.052 11.428-25.479 25.477-25.479 14.048 0 25.474 11.427 25.474 25.479v32.934c0 8.074-6.567 14.64-14.64 14.64"/><path opacity=".5" fill="#9BCEEE" d="M46.432 258.764l-.027-37.365c-.004-3.428 1.274-6.663 3.601-9.103 2.353-2.465 5.488-3.827 8.837-3.832l21.972-.003-2.482 3.476-19.488 1.012c-2.108 0-4.096.868-5.594 2.443-1.528 1.599-2.367 3.733-2.361 6.002l.028 37.365-4.486.005z"/><path opacity=".5" fill="#9BD0F0" d="M108.581 328.034h4.483v35.128h-4.483z"/><g opacity=".5"><path d="M465.094 156.93c8.193 13.224 20.29 23.578 24.272 26.982 2.844 2.437 6.635 3.672 11.272 3.672h13.07c4.087 0 7.667-1.309 10.647-3.886 6.641-5.737 16.04-15.011 23.148-26.626 12.558-20.529 15.197-46.034 15.197-63.815v-1.79h-47.676l.525-24.006c-16.259 15.424-37.712 24.006-59.999 24.006h-6.758v1.79c.003 24.086 5.788 46.702 16.302 63.673zm88.1 64.696l-1.458-3.504-15.094-15.273v16.545l-26.634 82.971h.225l40.084-57.653h6.202l10.543 10.663h.171l-13.421-32.263-1.032-.389zm-75.647-18.768l-15.054 15.264-15.531 37.253h.173l10.539-10.663h6.204l40.08 57.653h.229l-26.537-82.657zm-111.559 91.286c-2.22-1.243-4.102-2.993-5.548-5.077-.27-.404-.674-.673-1.144-.74-.471-.068-.975.033-1.346.336-1.883 1.344-3.967 2.422-6.187 3.128v-2.017c1.715-.741 2.521-2.724 1.782-4.44-.773-1.749-2.758-2.521-4.473-1.816-1.715.707-2.521 2.724-1.781 4.44.336.808.975 1.446 1.781 1.782v2.017c-2.219-.706-4.304-1.75-6.22-3.128-.37-.302-.874-.403-1.346-.336-.47.067-.874.336-1.143.74-1.446 2.118-3.362 3.834-5.616 5.111-.471.269-.705.807-.605 1.312.102.538.506.94 1.01 1.043 1.647.302 3.328.471 5.01.471 3.027.033 6.053-.573 8.877-1.716v5.616l1.984.94.672.336v-6.893c2.825 1.143 5.852 1.716 8.877 1.682 1.682 0 3.363-.169 5.011-.471.505-.103.907-.504 1.009-1.009.102-.539-.166-1.043-.604-1.311zm302.533-42.434c.494 1.989 1.438 9.93 2.623 21.287l17.502-37.926-.308-.946.877-.286 1.396-3.024 7.345-12.141-5.195-9.44h-4.271v2.333c.305.183.572.437.758.77.567 1.014.205 2.301-.811 2.869l-23.521 13.173 12.561 15.384c.737.9.607 2.224-.299 2.963-.394.322-.863.479-1.331.479-.61 0-1.217-.267-1.636-.78l-2.066-2.53v4.191c.001 2.002-1.623 3.627-3.624 3.624zm-312.957 54.437l-5.381-2.521-3.865-1.817c-.338-.168-.505-.604-.338-.94.068-.169.17-.303.338-.371.705-.236 1.109-.975.873-1.682-.234-.705-.975-1.107-1.682-.873-.101.033-.234.101-.336.168-1.681.807-2.387 2.791-1.613 4.473.336.707.907 1.277 1.613 1.613l3.867 1.815 5.381 2.556c.336.168.504.606.336.942-.067.134-.203.269-.336.335-.707.235-1.109.977-.875 1.682.235.707.976 1.11 1.682.875.101-.034.236-.101.336-.168 1.681-.807 2.387-2.792 1.613-4.473-.335-.706-.906-1.277-1.613-1.614zm286.518-116.27v22.529l21.357 11.963 20.83-11.663v-15.107l-.79.649c-1.047.855-2.04 1.67-2.922 2.425-3.276 2.799-7.149 4.342-10.898 4.342h-10.702c-1.165 0-2.109-.946-2.109-2.11 0-1.167.944-2.109 2.109-2.109h10.702c2.748 0 5.649-1.185 8.161-3.332.902-.77 1.914-1.604 2.984-2.48 4.164-3.419 9.881-8.104 11.135-11.457l9.334-19.803 9.336-5.427 3.397-11.74c-.131-1.568-1.431-2.716-3.13-2.716h-4.384l.412-2.458c.592-3.56.582-8.169.567-11.874v-2.219l.032-.321h-86.821v1.069c0 3.055.128 8.839.986 13.292l.481 2.51h-4.711c-.866 0-1.649.315-2.209.891-.339.349-.737.944-.754 1.822l2.385 11.77 10.692 5.306 9.535 19.883c.608 1.615 2.516 3.731 4.418 5.759l.577.606zm23.214-73.459c11.633 0 21.098-9.464 21.098-21.095 0-11.632-9.465-21.094-21.098-21.094-11.627 0-21.093 9.462-21.093 21.094 0 11.631 9.466 21.095 21.093 21.095zm.091-25.198c2.613 0 4.732 2.121 4.732 4.734 0 2.614-2.119 4.733-4.732 4.733-2.614 0-4.734-2.12-4.734-4.733-.001-2.613 2.119-4.734 4.734-4.734zm46.317 23.093h-29.536l-.142-.014c-4.465 3.94-10.32 6.338-16.73 6.338-6.399 0-12.248-2.393-16.71-6.324h-31.805v8.438h94.923v-8.438zm50.37 105.996l18.537 57.74 18.538-57.74v-13.387h-.029v-9.551l-1.701-1.17-.882.759c-2.871 2.456-6.582 3.704-11.033 3.704h-9.9c-4.039 0-7.597-1.304-10.571-3.875-.925-.8-1.921-1.692-2.96-2.662v4.911l.002-.002v21.273zm-413.033 94.547c0 .74.605 1.345 1.345 1.345s1.346-.604 1.346-1.345v-5.38l-2.69-1.245v6.625zm390.004-72.313l.583.226 3.291-3.33h5.302l28.396 40.842-19.025-59.269v-11.059l-10.236 10.358-9.039 21.73.728.502zm-18.702-12.871l14.197 9.771 7.006-16.837-17.456 5.687.047.144zm-364.745 68.405c-.605-.402-1.445-.234-1.85.37-.403.605-.234 1.446.371 1.849.1.068.201.137.335.168.337.17.505.607.337.943-.067.134-.201.268-.337.336l-1.714.841 3.094 1.445c1.613-.941 2.152-2.992 1.21-4.605-.336-.573-.841-1.042-1.446-1.347zm-243.252-239.81h-5.804v7.736h-7.735v5.807h7.735v7.731h5.804v-7.731h7.735v-5.807h-7.735zm233.972 250.269l1.713-.809-3.092-1.445c-1.614.94-2.152 2.992-1.211 4.606.303.572.841 1.042 1.445 1.346.707.235 1.48-.134 1.716-.841.2-.605-.034-1.244-.571-1.58-.338-.169-.505-.604-.338-.941.069-.136.204-.269.338-.336zm627.166-127.999c-9.532 3.318-19.018 2.424-27.971-1.157-.35-.134-.697-.28-1.045-.432-4.815-2.047-9.468-4.864-13.883-8.209v23.163l-12.912 5.204c6.744 18.631 24.299 31.011 44.273 31.011 19.961 0 37.681-12.538 44.351-31.275l-12.97-5.32.029-29.033c-7.514 8.114-15.673 14.587-19.872 16.048zm-62.173-53.957c9.916-6.391 21.004-12.217 31.783-17.121 21.662-9.855 44.606 1.426 63.252 17.886 1.53 1.35 2.489 2.963 2.98 4.769l4.656-9.768 15.478-7.871 3.533-17.791c-.009-1.453-.632-2.951-1.688-4.036-.951-.982-2.147-1.521-3.365-1.521h-5.766l.565-3.27c1.125-6.459 2.013-11.563 2.013-17.087l-.141-3.042c.059-8.564-1.908-17.392-5.686-25.526-.346-.776-.691-1.513-1.055-2.243-4.184-8.432-10.305-15.974-17.717-21.813-11.208-8.84-24.693-13.565-38.995-13.661-16.582-.119-32.471 6.475-44.629 18.547-12.439 12.355-19.574 29.363-19.574 46.664v1.075c0 5.265.455 10.417 1.564 17.78l.387 2.577h-5.324c-2.692 0-5.153 2.627-5.3 5.583l5.028 18.11 13.471 7.836 2.934 6.229c.294-.997.801-1.794 1.596-2.306zm-126.965-68.313h-5.803v7.736h-7.736v5.807h7.736v7.731h5.803v-7.731h7.735v-5.807h-7.735zm-705.783 115.113c5.334 8.721 12.408 15.696 17.4 20.015 2.137 1.847 4.708 2.782 7.641 2.782h9.9c3.351 0 6.083-.882 8.116-2.625 2.991-2.559 12.101-10.358 18.247-20.28 7.901-12.75 12.251-29.752 12.251-47.874v-1.357h-4.477c-16.875 0-33.12-6.5-45.434-18.178l.397 18.178h-35.452v1.357c0 13.379 1.98 32.564 11.411 47.982zm70.003 61.521l-6.7-14.558-10.235-10.379-.106 11.379-18.92 58.939 28.396-40.842h3.572c1.052-1.744 2.397-3.231 3.993-4.539zm625.643-129.039l.396 18.178h-35.453v1.357c0 13.38 1.979 32.564 11.41 47.983 5.335 8.721 12.408 15.696 17.4 20.015 2.137 1.847 4.708 2.782 7.641 2.782h9.9c3.352 0 6.083-.882 8.117-2.625 2.99-2.559 12.101-10.358 18.246-20.28 7.9-12.75 12.252-29.752 12.252-47.874v-1.357h-4.477c-16.873-.001-33.119-6.5-45.432-18.179zm-626.228 117.043l4.338 9.429c2.875-1.642 6.237-3.03 9.936-4.443l-14.274-4.986zm153.504-42.368c-9.532 3.318-19.018 2.424-27.971-1.157-.35-.133-.697-.279-1.044-.431-4.816-2.047-9.469-4.864-13.885-8.21v23.164l-12.912 5.204c6.745 18.631 24.299 31.011 44.274 31.011 19.96 0 37.68-12.538 44.35-31.275l-12.97-5.32.029-29.033c-7.514 8.113-15.673 14.586-19.871 16.047zm-62.174-53.957c9.916-6.391 21.003-12.217 31.783-17.121 21.662-9.855 44.606 1.426 63.252 17.886 1.53 1.35 2.489 2.963 2.98 4.769l4.656-9.768 15.478-7.871 3.533-17.791c-.009-1.453-.632-2.951-1.688-4.036-.951-.982-2.147-1.521-3.365-1.521h-5.766l.565-3.27c1.125-6.459 2.013-11.563 2.013-17.087l-.141-3.042c.059-8.564-1.908-17.392-5.686-25.526-.346-.776-.691-1.513-1.055-2.243-4.184-8.432-10.305-15.974-17.717-21.813-11.208-8.84-24.693-13.565-38.995-13.661-16.581-.119-32.47 6.475-44.628 18.547-12.44 12.355-19.574 29.363-19.574 46.664v1.075c0 5.265.455 10.417 1.563 17.78l.388 2.577h-5.324c-2.693 0-5.154 2.627-5.3 5.583l5.029 18.11 13.47 7.836 2.934 6.229c.293-.997.801-1.794 1.595-2.306zm293.112 65.999l.005.005v-10.533c-1.884 1.808-3.678 3.431-5.308 4.84-3.771 3.257-8.285 4.91-13.411 4.91h-13.07c-5.674 0-10.388-1.575-14.021-4.686l-.994-.854-3.824 2.63v12.029h-.033v17.812l25.329 78.899 25.327-78.899v-26.153zm628.943-8.667c2.844 2.437 6.635 3.672 11.272 3.672h13.07c4.087 0 7.667-1.309 10.647-3.886 6.641-5.737 16.04-15.011 23.148-26.626 12.558-20.529 15.197-46.034 15.197-63.815v-1.79h-47.676l.525-24.006c-16.259 15.424-37.712 24.006-59.999 24.006h-6.758v1.79c0 24.087 5.785 46.703 16.299 63.674 8.196 13.222 20.293 23.576 24.275 26.981zm-11.819 18.946l-15.054 15.264-15.531 37.253h.173l10.539-10.663h6.204l40.08 57.653h.229l-26.537-82.657zm54.876-10.279l.005.005v-10.533c-1.884 1.808-3.678 3.431-5.308 4.84-3.771 3.257-8.285 4.91-13.411 4.91h-13.07c-5.674 0-10.388-1.575-14.021-4.686l-.995-.854-3.823 2.63v12.029h-.033v17.812l25.329 78.899 25.327-78.899v-26.153zm-176.825 105.498c-.605-.402-1.445-.234-1.85.37-.403.605-.234 1.446.371 1.849.1.068.201.137.335.168.337.17.505.607.337.943-.067.134-.201.268-.337.336l-1.714.841 3.094 1.445c1.613-.941 2.152-2.992 1.21-4.605-.336-.573-.841-1.042-1.446-1.347zm-.034 8.07l-5.381-2.521-3.865-1.817c-.338-.168-.505-.604-.338-.94.068-.169.17-.303.338-.371.705-.236 1.109-.975.873-1.682-.234-.705-.975-1.107-1.682-.873-.101.033-.234.101-.336.168-1.681.807-2.387 2.791-1.613 4.473.336.707.907 1.277 1.613 1.613l3.867 1.815 5.381 2.556c.336.168.504.606.336.942-.067.134-.203.269-.336.335-.707.235-1.109.977-.875 1.682.235.707.976 1.11 1.682.875.101-.034.236-.101.336-.168 1.681-.807 2.387-2.792 1.613-4.473-.335-.706-.906-1.277-1.613-1.614zm10.424-12.003c-2.22-1.243-4.102-2.993-5.548-5.077-.27-.404-.674-.673-1.144-.74-.471-.068-.975.033-1.346.336-1.883 1.344-3.967 2.422-6.187 3.128v-2.017c1.715-.741 2.521-2.724 1.782-4.44-.773-1.749-2.758-2.521-4.473-1.816-1.715.707-2.521 2.724-1.781 4.44.336.808.975 1.446 1.781 1.782v2.017c-2.219-.706-4.304-1.75-6.22-3.128-.37-.302-.874-.403-1.346-.336-.47.067-.874.336-1.143.74-1.446 2.118-3.362 3.834-5.616 5.111-.471.269-.705.807-.605 1.312.102.538.506.94 1.01 1.043 1.647.302 3.328.471 5.01.471 3.027.033 6.053-.573 8.877-1.716v5.616l1.984.94.672.336v-6.893c2.825 1.143 5.852 1.716 8.877 1.682 1.682 0 3.363-.169 5.011-.471.505-.103.907-.504 1.009-1.009.102-.539-.166-1.043-.604-1.311zm299.308-177.726c11.633 0 21.098-9.464 21.098-21.095 0-11.632-9.465-21.094-21.098-21.094-11.627 0-21.093 9.462-21.093 21.094 0 11.631 9.466 21.095 21.093 21.095zm.091-25.198c2.613 0 4.732 2.121 4.732 4.734 0 2.614-2.119 4.733-4.732 4.733-2.614 0-4.734-2.12-4.734-4.733-.001-2.613 2.119-4.734 4.734-4.734zm23.103 118.014v2.333c.305.183.572.437.758.77.567 1.014.205 2.301-.811 2.869l-23.521 13.173 12.562 15.384c.737.9.607 2.224-.299 2.963-.394.322-.863.479-1.331.479-.61 0-1.217-.267-1.636-.78l-2.066-2.53v4.191c0 2.002-1.623 3.627-3.624 3.624.494 1.989 1.438 9.93 2.623 21.287l19.467-42.182 7.346-12.141-5.196-9.44h-4.272zm-34.472 38.852v-3.84l-1.878 2.209c-.754.894-2.084 1-2.975.244-.884-.756-.994-2.085-.239-2.972l13.042-15.346-22.613-12.667c-.276-.155-.499-.365-.674-.606-.494-.386-.816-.981-.816-1.657v-4.218h-2.502l-8.397 13.493 26.725 62.356c1.811-17.644 3.295-30.734 3.953-33.373-2.005.004-3.626-1.621-3.626-3.623zm-11.936-58.209v22.529l21.357 11.963 20.83-11.663v-15.107l-.79.649c-1.047.855-2.04 1.67-2.922 2.425-3.276 2.799-7.149 4.342-10.898 4.342h-10.702c-1.165 0-2.109-.946-2.109-2.11 0-1.167.944-2.109 2.109-2.109h10.702c2.748 0 5.649-1.185 8.161-3.332.902-.77 1.914-1.604 2.984-2.48 4.164-3.419 9.881-8.104 11.135-11.457l9.334-19.803 9.336-5.427 3.397-11.74c-.131-1.568-1.431-2.716-3.13-2.716h-4.384l.412-2.458c.592-3.56.582-8.169.567-11.874v-2.219l.032-.321h-86.821v1.069c0 3.055.128 8.839.986 13.292l.481 2.51h-4.711c-.866 0-1.649.315-2.209.891-.339.349-.737.944-.754 1.822l2.385 11.77 10.692 5.306 9.535 19.883c.608 1.615 2.516 3.731 4.418 5.759l.577.606zm69.622-75.564h-29.536l-.142-.014c-4.465 3.94-10.32 6.338-16.73 6.338-6.399 0-12.248-2.393-16.71-6.324h-31.805v8.438h94.923v-8.438zm-158.924 108.41l.414-1.097-1.458-3.504-15.094-15.273v16.545l-26.634 82.971h.225l40.084-57.653h6.202l10.543 10.663h.171l-13.421-32.263zm-421.149-12.76l-.106 11.379-18.92 58.939 28.396-40.842h3.572c1.052-1.744 2.396-3.23 3.993-4.539l-6.701-14.558-10.234-10.379zm-85.603 57.338l.017-36.879-4.222 1.375-.016 35.46c-4.557.936-7.98 4.968-7.98 9.8 0 5.526 4.479 10.005 10.005 10.005s10.005-4.479 10.005-10.005c0-4.77-3.34-8.752-7.809-9.756zm-2.196 14.368c-2.549 0-4.613-2.064-4.613-4.612 0-2.549 2.064-4.612 4.613-4.612 2.548 0 4.612 2.063 4.612 4.612 0 2.548-2.064 4.612-4.612 4.612zm67.838 5.907h-7.438l-18.061-25.973c.041.597.075 1.2.075 1.84l.012 5.413 24.611 53.881 30.42-63.677c.156-.326.386-.589.652-.797l.018-8.201c0-1.731.147-3.304.419-4.75l-29.386 42.264h-1.322zm-129.982-2.493c1.812-17.644 3.296-30.734 3.954-33.373-2.004.003-3.625-1.622-3.625-3.624v-3.84l-1.878 2.209c-.754.894-2.084 1-2.975.244-.884-.756-.994-2.085-.239-2.972l13.042-15.346-22.613-12.667c-.276-.155-.5-.365-.674-.606-.494-.386-.816-.981-.816-1.657v-4.218h-2.502l-8.398 13.493 26.724 62.357zm170.632-52.749c2.875-1.642 6.237-3.03 9.935-4.443l-14.273-4.985 4.338 9.428zm196.721 82.522c0 .74.605 1.345 1.345 1.345s1.346-.604 1.346-1.345v-5.38l-2.69-1.245v6.625zm-2.723-6.32l1.713-.809-3.092-1.445c-1.614.94-2.152 2.992-1.211 4.606.303.572.841 1.042 1.445 1.346.707.235 1.48-.134 1.716-.841.2-.605-.034-1.244-.571-1.58-.338-.169-.505-.604-.338-.941.069-.136.204-.269.338-.336z" fill="none"/><path fill="#9BCFEF" d="M1344.146 248.086v-4.191l-8.737-10.697-9.391 11.048v3.84c0 2.002 1.621 3.627 3.625 3.624-.658 2.639-2.143 15.729-3.953 33.373l5.719 13.345 11.736-25.431c-1.186-11.357-2.129-19.298-2.623-21.287 2 .003 3.624-1.622 3.624-3.624z"/><path fill="#9BD0F0" d="M1430.246 263.443c0-12.604-7.96-16.617-19.201-20.9l-20.999-14.451-.018 39.209c4.469 1.004 7.809 4.986 7.809 9.756 0 5.526-4.479 10.005-10.005 10.005s-10.005-4.479-10.005-10.005c0-4.833 3.424-8.864 7.98-9.8l.019-42.069-12.023-8.275-6.547-11.897h-6.766v-10.548c0-.137-.016-.271-.041-.401 3.354-2.963 6.305-6.031 7.374-8.901l8.706-18.455 9.66-5.613 4.048-14.277c0-3.871-2.97-6.934-6.854-7.183.327-3.354.32-7.049.31-10.142v-2.205l-.032-.321h4.267v-16.876h-4.227v-12.129c.003-5.776-2.245-11.206-6.328-15.29-4.081-4.084-9.512-6.332-15.29-6.332-1.166 0-2.106.944-2.106 2.11 0 1.165.94 2.11 2.106 2.11 4.646 0 9.021 1.809 12.307 5.099 3.289 3.285 5.094 7.653 5.094 12.303v12.129h-21.647c3.001-4.16 4.775-9.261 4.775-14.77 0-13.958-11.354-25.312-25.315-25.312-13.957 0-25.312 11.354-25.312 25.312 0 5.509 1.774 10.61 4.775 14.77h-21.648v-12.129c0-4.65 1.807-9.019 5.094-12.306 3.285-3.288 7.653-5.096 12.302-5.096 1.167 0 2.11-.945 2.11-2.11 0-1.166-.943-2.11-2.11-2.11-5.774 0-11.205 2.248-15.285 6.332-4.084 4.084-6.337 9.514-6.328 15.29v12.129h-6.333v16.876h3.903v1.069c0 3.221.124 7.6.659 11.589-1.895.076-3.629.836-4.919 2.163-1.311 1.35-1.997 3.141-1.945 5.042l.04.357 2.839 13.993 11.241 5.577 8.83 18.408c.745 1.994 2.591 4.155 4.655 6.378v13.468h-4.845l-9.843 15.806-33.043 11.477.002.001-33.132-12.492-1.691-4.063-18.664-18.887v-5.546h51.365v-109.734c0-45.056-35.194-82.882-79.7-83.7-45.65-.84-82.727 36.366-82.727 82.377v111.056h51.995v5.503l-18.051 18.309-37.527 14.088-.804.331c-1.291-.524-2.626-1.032-4.001-1.539l-91.381-37.485.031-28.905c.717-.967 1.568-1.972 2.4-2.945 1.85-2.179 3.598-4.233 4.327-6.195l12.796-26.818 16.059-8.171 3.998-20.128.045-.372c.076-2.732-.996-5.451-2.953-7.457-1.807-1.86-4.143-2.882-6.582-2.882h-.439c.962-5.587 1.734-10.58 1.734-15.871v-2.519l-.136-.797c.013-9.124-2.093-18.501-6.09-27.115-.362-.801-.733-1.593-1.12-2.374-4.476-9.022-11.031-17.092-18.956-23.34-11.998-9.464-26.432-14.524-41.743-14.627-17.846-.081-34.812 6.927-47.817 19.85-13.284 13.192-20.901 31.358-20.901 49.845v1.075c0 4.861.367 9.597 1.237 15.871h-.126c-5.309 0-9.789 4.738-9.789 10.348l5.683 20.792 13.844 8.05 12.647 26.839c.572 1.537 1.55 3.125 2.801 4.739-3.922-7.799-10.893-22.292-9.053-28.524l-2.934-6.229-13.471-7.836-5.028-18.11c.146-2.956 2.607-5.583 5.3-5.583h5.324l-.387-2.577c-1.109-7.363-1.564-12.515-1.564-17.78v-1.075c0-17.301 7.135-34.309 19.574-46.664 12.158-12.072 28.047-18.666 44.629-18.547 14.302.096 27.787 4.821 38.996 13.662 7.412 5.839 13.533 13.382 17.717 21.813.363.729.709 1.467 1.055 2.243 3.777 8.134 5.744 16.961 5.686 25.526l.141 3.042c0 5.523-.888 10.627-2.013 17.087l-.565 3.27h5.766c1.218 0 2.414.539 3.365 1.521 1.057 1.084 1.68 2.583 1.688 4.036l-3.533 17.791-15.478 7.871-4.656 9.768c2.36 8.688-6.264 21.898-15.969 32.376l-.029 29.033 12.97 5.32c-6.67 18.737-24.39 31.275-44.351 31.275-19.975 0-37.529-12.38-44.273-31.011l12.912-5.204v-23.163c-1.523-1.154-3.019-2.371-4.482-3.642v23.779l-85.533 34.471-23.603-8.247-13.364-13.554v-13.063c3.87-3.851 8.438-8.979 12.076-14.852 8.334-13.452 12.923-31.294 12.923-50.234v-1.359h-4.483v1.359c0 18.122-4.352 35.124-12.252 47.874-6.146 9.922-15.256 17.722-18.246 20.28-2.034 1.744-4.766 2.625-8.117 2.625h-9.9c-2.933 0-5.504-.935-7.641-2.782-4.992-4.319-12.065-11.294-17.4-20.015-9.431-15.418-11.41-34.603-11.41-47.983v-1.359h-4.484v1.359c0 13.956 2.094 34.017 12.071 50.324 3.274 5.352 7.149 10.06 10.851 13.96v13.892l-13.74 13.908-.102-.312-24.409 7.955.046.141-5.56 1.812.001-1.89-12.023-8.275-6.547-11.897h-6.766v-10.548c0-.137-.016-.271-.041-.401 3.354-2.963 6.305-6.031 7.374-8.901l8.706-18.455 9.66-5.613 4.048-14.277c0-3.871-2.97-6.934-6.854-7.183.327-3.354.32-7.049.31-10.142v-2.205l-.032-.321h4.267v-16.876h-4.227v-12.128c.003-5.776-2.245-11.206-6.328-15.29-4.081-4.084-9.512-6.332-15.29-6.332-1.166 0-2.106.944-2.106 2.11 0 1.165.94 2.11 2.106 2.11 4.646 0 9.021 1.809 12.307 5.099 3.289 3.285 5.094 7.653 5.094 12.303v12.129h-21.647c3.001-4.16 4.775-9.261 4.775-14.77 0-13.958-11.354-25.312-25.315-25.312-13.957 0-25.312 11.354-25.312 25.312 0 5.509 1.774 10.61 4.775 14.77h-21.648v-12.129c0-4.65 1.807-9.019 5.094-12.306 3.285-3.288 7.653-5.096 12.302-5.096 1.167 0 2.11-.945 2.11-2.11 0-1.166-.943-2.11-2.11-2.11-5.774 0-11.205 2.248-15.285 6.332-4.084 4.084-6.337 9.514-6.328 15.29v12.129h-6.333v16.876h3.903v1.069c0 3.221.124 7.6.659 11.589-1.895.076-3.629.836-4.919 2.163-1.311 1.35-1.997 3.141-1.945 5.042l.04.357 2.839 13.993 11.241 5.577 8.83 18.408c.745 1.994 2.591 4.155 4.655 6.378v13.468h-4.845l-9.843 15.806-33.043 11.477.002.001-33.132-12.492-1.691-4.063-18.664-18.887v-5.546h51.365v-109.734c0-45.056-35.194-82.882-79.7-83.7-45.65-.84-82.727 36.366-82.727 82.377v111.056h51.995v5.503l-18.051 18.309-37.527 14.088-.804.331c-1.291-.524-2.626-1.032-4.001-1.539l-91.381-37.485.031-28.905c.717-.967 1.568-1.972 2.4-2.945 1.85-2.179 3.598-4.233 4.327-6.195l12.796-26.818 16.059-8.171 3.998-20.128.045-.372c.076-2.732-.996-5.451-2.953-7.457-1.807-1.86-4.143-2.882-6.582-2.882h-.442c.962-5.587 1.734-10.58 1.734-15.871v-2.519l-.136-.797c.013-9.124-2.093-18.501-6.09-27.115-.362-.801-.733-1.593-1.12-2.374-4.476-9.022-11.031-17.092-18.956-23.34-11.998-9.464-26.432-14.524-41.743-14.627-17.846-.081-34.812 6.927-47.817 19.85-13.285 13.192-20.901 31.358-20.901 49.845v1.075c0 4.861.367 9.597 1.237 15.871h-.125c-5.31 0-9.79 4.738-9.79 10.348l5.683 20.792 13.844 8.05 12.647 26.839c.573 1.537 1.55 3.125 2.8 4.738-3.922-7.799-10.891-22.291-9.052-28.523l-2.934-6.229-13.47-7.836-5.029-18.11c.146-2.956 2.607-5.583 5.3-5.583h5.324l-.388-2.577c-1.109-7.363-1.563-12.515-1.563-17.78v-1.075c0-17.301 7.134-34.309 19.574-46.664 12.158-12.072 28.047-18.666 44.628-18.547 14.302.096 27.787 4.821 38.997 13.662 7.412 5.839 13.533 13.382 17.717 21.813.363.729.709 1.467 1.055 2.243 3.777 8.134 5.744 16.961 5.686 25.526l.141 3.042c0 5.523-.888 10.627-2.013 17.087l-.565 3.27h5.766c1.218 0 2.414.539 3.365 1.521 1.057 1.084 1.68 2.583 1.688 4.036l-3.533 17.791-15.478 7.871-4.656 9.768c2.36 8.688-6.264 21.898-15.969 32.376l-.029 29.033 12.97 5.32c-6.67 18.737-24.39 31.275-44.35 31.275-19.976 0-37.53-12.38-44.274-31.011l12.912-5.204v-23.164c-1.524-1.154-3.019-2.371-4.482-3.642v23.78l-85.532 34.471-23.604-8.247-17.817-18.072v21.28l-21.597 67.267h7.439l29.385-42.263c-.272 1.446-.419 3.019-.419 4.75l-.017 8.202c-.267.208-.496.471-.652.796l-30.42 63.677-37.261-81.577c-.517-1.13-1.846-1.626-2.972-1.106-1.129.512-1.622 1.844-1.107 2.967l41.249 90.312 31.143-65.189-.198 93.757 2.245.004-.004 1.735h291.644l.001-1.735h2.246l.029-111.571c0-9.672-4.541-14.688-11.344-18.326l30.343-11.389-16.261 38.977h8.271l10.542-10.662h2.238l40.079 57.647h10.68l40.087-57.647h2.234l10.539 10.662h8.265l-14.332-34.442 31.339 11.818c18.243 7.151 31.208 23.817 33.818 43.487l8.16 76.174-.102.221.183.436c.174.424.318.86.428 1.31.112.466.191.942.236 1.426l.011.014.001.009 1.497 2.616 2.636.011.125 1.167 1.94-.743.471 1.762.987-2.172 117.498.474-.177-83.465 22.301 48.827v34.638h4.483v-34.616l28.856-60.403-.198 93.757 2.244.004-.004 1.735h291.647l.001-1.735h2.246l.029-111.571c0-9.672-4.541-14.688-11.344-18.326l30.343-11.389-16.261 38.977h8.271l10.542-10.662h2.238l40.079 57.647h10.68l40.087-57.647h2.234l10.539 10.662h8.265l-14.332-34.442 31.339 11.818c18.243 7.151 31.208 23.817 33.818 43.487l8.16 76.174-.102.221.183.436c.174.424.318.86.428 1.31.112.466.191.942.236 1.426l.011.014.001.009 1.497 2.616 2.636.011.125 1.167 1.94-.743.471 1.762.987-2.172 117.498.474-.206-99.723zm-1277.926-31.109l-4.338-9.429 14.274 4.986c-3.699 1.413-7.061 2.801-9.936 4.443zm-11.319 7.105l-28.396 40.842 18.92-58.939.106-11.379 10.235 10.379 6.7 14.558c-1.596 1.309-2.941 2.795-3.993 4.539h-3.572zm205.317 70.374c.537.336.771.975.571 1.58-.235.707-1.009 1.076-1.716.841-.604-.304-1.143-.773-1.445-1.346-.941-1.614-.403-3.666 1.211-4.606l3.092 1.445-1.713.809c-.135.066-.27.2-.338.336-.167.337 0 .773.338.941zm5.413 5.043c0 .74-.605 1.345-1.346 1.345-.739 0-1.345-.604-1.345-1.345v-6.625l2.69 1.245v5.38zm3.833-2.622c-.1.067-.235.134-.336.168-.706.235-1.446-.168-1.682-.875-.234-.705.168-1.446.875-1.682.133-.066.269-.201.336-.335.168-.336 0-.774-.336-.942l-5.381-2.556-3.867-1.815c-.706-.336-1.277-.906-1.613-1.613-.773-1.682-.067-3.666 1.613-4.473.102-.067.235-.135.336-.168.707-.234 1.447.168 1.682.873.236.707-.168 1.445-.873 1.682-.168.068-.27.202-.338.371-.167.336 0 .772.338.94l3.865 1.817 5.381 2.521c.707.337 1.277.907 1.613 1.614.774 1.681.068 3.667-1.613 4.473zm.27-8.205l-3.094-1.445 1.714-.841c.136-.068.27-.202.337-.336.168-.336 0-.773-.337-.943-.134-.031-.235-.1-.335-.168-.605-.402-.774-1.243-.371-1.849.404-.604 1.244-.772 1.85-.37.605.305 1.11.773 1.446 1.347.942 1.613.403 3.664-1.21 4.605zm10.76-8.574c-.102.505-.504.906-1.009 1.009-1.647.302-3.329.471-5.011.471-3.025.034-6.052-.539-8.877-1.682v6.893l-.672-.336-1.984-.94v-5.616c-2.824 1.143-5.85 1.749-8.877 1.716-1.682 0-3.362-.169-5.01-.471-.504-.103-.908-.505-1.01-1.043-.1-.505.135-1.043.605-1.312 2.254-1.277 4.17-2.993 5.616-5.111.269-.404.673-.673 1.143-.74.472-.067.976.034 1.346.336 1.916 1.378 4.001 2.422 6.22 3.128v-2.017c-.807-.336-1.445-.975-1.781-1.782-.74-1.716.066-3.733 1.781-4.44 1.715-.705 3.699.068 4.473 1.816.739 1.716-.067 3.699-1.782 4.44v2.017c2.22-.706 4.304-1.784 6.187-3.128.371-.303.875-.404 1.346-.336.47.067.874.336 1.144.74 1.446 2.084 3.328 3.834 5.548 5.077.436.268.704.772.604 1.311zm88.959-203.989c22.287 0 43.74-8.582 59.999-24.006l-.525 24.006h47.676v1.79c0 17.782-2.64 43.286-15.197 63.815-7.108 11.615-16.508 20.889-23.148 26.626-2.98 2.577-6.561 3.886-10.647 3.886h-13.07c-4.638 0-8.429-1.235-11.272-3.672-3.982-3.404-16.079-13.758-24.272-26.982-10.514-16.971-16.299-39.586-16.299-63.674v-1.79h6.755zm48.405 210.899l-40.08-57.653h-6.204l-10.539 10.663h-.173l15.531-37.253 15.054-15.264.104 16.85 26.536 82.658h-.229zm3.138-4.734l-25.329-78.899v-17.812h.033v-12.029l3.824-2.63.994.854c3.633 3.111 8.347 4.686 14.021 4.686h13.07c5.126 0 9.641-1.652 13.411-4.91 1.63-1.41 3.424-3.033 5.308-4.84v10.533l-.005-.005v26.152l-25.327 78.9zm60.137-42.256h-.171l-10.544-10.663h-6.201l-40.084 57.653h-.226l26.634-82.971v-16.545l15.095 15.273 1.458 3.504-.414 1.096 1.031.389 13.422 32.264zm194.839-61.25c1.039.97 2.035 1.862 2.96 2.662 2.975 2.571 6.532 3.875 10.571 3.875h9.9c4.451 0 8.162-1.248 11.033-3.704l.882-.759c.492-.425 1.062-.923 1.701-1.494v12.215h.029v13.387l-18.538 57.74-18.537-57.74v-21.274l-.002.002v-4.91zm-14.717 26.187l10.236-10.358v11.059l19.025 59.269-28.396-40.842h-5.302l-3.291 3.33-.583-.226-.729-.501 9.04-21.731zm-5.809 2.294l-7.006 16.836-14.197-9.771 3.794-1.236-.047-.143 17.456-5.686zm-76.25-148.377c11.633 0 21.098 9.462 21.098 21.094 0 11.63-9.465 21.095-21.098 21.095-11.627 0-21.093-9.464-21.093-21.095 0-11.632 9.466-21.094 21.093-21.094zm-48.515 40.084h31.805c4.462 3.931 10.311 6.324 16.71 6.324 6.41 0 12.266-2.398 16.73-6.338l.142.014h29.536v8.438h-94.923v-8.438zm20.309 69.2l-9.535-19.883-10.692-5.306-2.385-11.77c.017-.877.415-1.473.754-1.822.56-.576 1.343-.891 2.209-.891h4.711l-.481-2.51c-.858-4.453-.986-10.237-.986-13.292v-1.069h86.821l-.032.321v2.219c.015 3.705.024 8.313-.567 11.874l-.412 2.458h4.384c1.699 0 2.999 1.148 3.13 2.716l-3.397 11.74-9.336 5.427-9.334 19.803c-1.254 3.353-6.971 8.038-11.135 11.457-1.07.877-2.082 1.711-2.984 2.48-2.512 2.146-5.413 3.332-8.161 3.332h-10.702c-1.165 0-2.109.942-2.109 2.109 0 1.164.944 2.11 2.109 2.11h10.702c3.749 0 7.622-1.543 10.898-4.342.882-.755 1.875-1.57 2.922-2.425l.79-.649v15.107l-20.83 11.663-21.357-11.963v-22.529l-.574-.606c-1.906-2.028-3.813-4.145-4.421-5.759zm-1.728 25.721h2.502v4.218c0 .676.322 1.271.816 1.657.174.241.397.451.674.606l22.613 12.667-13.042 15.346c-.755.887-.645 2.216.239 2.972.891.756 2.221.649 2.975-.244l1.878-2.209 9.391-11.048 8.737 10.697 2.066 2.53c.419.514 1.025.78 1.636.78.468 0 .938-.156 1.331-.479.906-.739 1.036-2.063.299-2.963l-12.561-15.384 23.521-13.173c1.016-.567 1.378-1.854.811-2.869-.186-.333-.453-.587-.758-.77v-2.333h4.271l5.195 9.44-7.345 12.141-1.396 3.024-.877.286.308.946-17.502 37.926-11.736 25.431-5.72-13.345-26.725-62.356 8.399-13.494zm80.47 77.828c-5.526 0-10.005-4.479-10.005-10.005 0-4.833 3.424-8.864 7.98-9.8l.016-35.46 4.222-1.375-.017 36.879c4.469 1.004 7.809 4.986 7.809 9.756 0 5.526-4.479 10.005-10.005 10.005zm98.127-37l-.018 8.201c-.267.208-.496.471-.652.797l-30.42 63.677-24.611-53.881-.012-5.413c0-.64-.034-1.243-.075-1.84l18.061 25.973h8.76l29.386-42.264c-.272 1.446-.419 3.019-.419 4.75zm2.614-10.623h-3.572l-28.396 40.842 18.92-58.939.106-11.379 10.234 10.379 6.701 14.558c-1.596 1.309-2.941 2.796-3.993 4.539zm7.747-7.105l-4.339-9.428 14.273 4.985c-3.696 1.413-7.059 2.801-9.934 4.443zm193.998 77.479c.537.336.771.975.571 1.58-.235.707-1.009 1.076-1.716.841-.604-.304-1.143-.773-1.445-1.346-.941-1.614-.403-3.666 1.211-4.606l3.092 1.445-1.713.809c-.135.066-.27.2-.338.336-.167.337 0 .773.338.941zm5.413 5.043c0 .74-.605 1.345-1.346 1.345-.739 0-1.345-.604-1.345-1.345v-6.625l2.69 1.245v5.38zm3.833-2.622c-.1.067-.235.134-.336.168-.706.235-1.446-.168-1.682-.875-.234-.705.168-1.446.875-1.682.133-.066.269-.201.336-.335.168-.336 0-.774-.336-.942l-5.381-2.556-3.867-1.815c-.706-.336-1.277-.906-1.613-1.613-.773-1.682-.067-3.666 1.613-4.473.102-.067.235-.135.336-.168.707-.234 1.447.168 1.682.873.236.707-.168 1.445-.873 1.682-.168.068-.27.202-.338.371-.167.336 0 .772.338.94l3.865 1.817 5.381 2.521c.707.337 1.277.907 1.613 1.614.774 1.681.068 3.667-1.613 4.473zm.27-8.205l-3.094-1.445 1.714-.841c.136-.068.27-.202.337-.336.168-.336 0-.773-.337-.943-.134-.031-.235-.1-.335-.168-.605-.402-.774-1.243-.371-1.849.404-.604 1.244-.772 1.85-.37.605.305 1.11.773 1.446 1.347.942 1.613.403 3.664-1.21 4.605zm10.76-8.574c-.102.505-.504.906-1.009 1.009-1.647.302-3.329.471-5.011.471-3.025.034-6.052-.539-8.877-1.682v6.893l-.672-.336-1.984-.94v-5.616c-2.824 1.143-5.85 1.749-8.877 1.716-1.682 0-3.362-.169-5.01-.471-.504-.103-.908-.505-1.01-1.043-.1-.505.135-1.043.605-1.312 2.254-1.277 4.17-2.993 5.616-5.111.269-.404.673-.673 1.143-.74.472-.067.976.034 1.346.336 1.916 1.378 4.001 2.422 6.22 3.128v-2.017c-.807-.336-1.445-.975-1.781-1.782-.74-1.716.066-3.733 1.781-4.44 1.715-.705 3.699.068 4.473 1.816.739 1.716-.067 3.699-1.782 4.44v2.017c2.22-.706 4.304-1.784 6.187-3.128.371-.303.875-.404 1.346-.336.47.067.874.336 1.144.74 1.446 2.084 3.328 3.834 5.548 5.077.436.268.704.772.604 1.311zm98.5-138.525c-10.514-16.971-16.299-39.586-16.299-63.674v-1.79h6.758c22.287 0 43.74-8.582 59.999-24.006l-.525 24.006h47.676v1.79c0 17.782-2.64 43.286-15.197 63.815-7.108 11.615-16.508 20.889-23.148 26.626-2.98 2.577-6.561 3.886-10.647 3.886h-13.07c-4.638 0-8.429-1.235-11.272-3.672-3.985-3.404-16.082-13.758-24.275-26.981zm38.864 145.435l-40.08-57.653h-6.204l-10.539 10.663h-.173l15.531-37.253 15.054-15.264.104 16.85 26.536 82.658h-.229zm3.138-4.734l-25.329-78.899v-17.812h.033v-12.029l3.823-2.63.995.854c3.633 3.111 8.347 4.686 14.021 4.686h13.07c5.126 0 9.641-1.652 13.411-4.91 1.63-1.41 3.424-3.033 5.308-4.84v10.533l-.005-.005v26.152l-25.327 78.9zm60.137-42.256h-.171l-10.544-10.663h-6.201l-40.084 57.653h-.226l26.634-82.971v-16.545l15.095 15.273 1.458 3.504-.414 1.096 1.032.389 13.421 32.264zm76.97-160.051c0-11.632 9.466-21.094 21.093-21.094 11.633 0 21.098 9.462 21.098 21.094 0 11.63-9.465 21.095-21.098 21.095-11.627-.001-21.093-9.465-21.093-21.095zm-27.422 27.426v-8.438h31.805c4.462 3.931 10.311 6.324 16.71 6.324 6.41 0 12.266-2.398 16.73-6.338l.142.014h29.536v8.438h-94.923zm20.309 60.763l-9.535-19.883-10.692-5.306-2.385-11.77c.017-.877.415-1.473.754-1.822.56-.576 1.343-.891 2.209-.891h4.711l-.481-2.51c-.858-4.453-.986-10.237-.986-13.292v-1.069h86.821l-.032.321v2.219c.015 3.705.024 8.313-.567 11.874l-.412 2.458h4.384c1.699 0 2.999 1.148 3.13 2.716l-3.397 11.74-9.336 5.427-9.334 19.803c-1.254 3.353-6.971 8.038-11.135 11.457-1.07.877-2.082 1.711-2.984 2.48-2.512 2.146-5.413 3.332-8.161 3.332h-10.702c-1.165 0-2.109.942-2.109 2.109 0 1.164.944 2.11 2.109 2.11h10.702c3.749 0 7.622-1.543 10.898-4.342.882-.755 1.875-1.57 2.922-2.425l.79-.649v15.107l-20.83 11.663-21.357-11.963v-22.529l-.574-.606c-1.906-2.028-3.813-4.145-4.421-5.759zm53.521 47.302l-19.467 42.182-11.736 25.431-5.719-13.345-26.725-62.356 8.397-13.493h2.502v4.218c0 .676.322 1.271.816 1.657.175.241.397.451.674.606l22.613 12.667-13.042 15.346c-.755.887-.645 2.216.239 2.972.891.756 2.221.649 2.975-.244l1.878-2.209 9.391-11.048 8.737 10.697 2.066 2.53c.419.514 1.025.78 1.636.78.468 0 .938-.156 1.331-.479.906-.739 1.036-2.063.299-2.963l-12.562-15.384 23.521-13.173c1.016-.567 1.378-1.854.811-2.869-.186-.333-.453-.587-.758-.77v-2.333h4.271l5.196 9.44-7.344 12.14z"/><path fill="#9BCFEF" d="M746.739 175.721c-9.978-16.307-12.071-36.368-12.071-50.324v-1.359h4.484v.002h35.453l-.396-18.178c12.313 11.679 28.559 18.178 45.434 18.178h4.477v-.002h4.483v1.359c0 18.94-4.589 36.782-12.923 50.234-3.638 5.873-8.206 11-12.076 14.852v9.162h38.729v-84.095c0-4.84-.58-9.538-1.611-14.059h-119.569c-1.161 4.845-1.814 9.881-1.814 15.059v83.095h38.251v-9.964c-3.701-3.9-7.576-8.608-10.851-13.96zm52.381 18.986c-.64.571-1.209 1.069-1.701 1.494l1.701 1.17v-2.664zm439.037 99.797h-5.556v7.407h-7.404v5.557h7.404v7.398h5.556v-7.398h7.404v-5.557h-7.404z"/><circle fill="#9BCFEF" cx="1337.387" cy="95.954" r="4.734"/><circle fill="#9BD0F0" cx="1387.832" cy="277.057" r="4.613"/><path fill="#9BCFEF" d="M944.469 178.948c.348.152.695.298 1.045.432 8.953 3.581 18.438 4.475 27.971 1.157 4.198-1.461 12.357-7.934 19.873-16.047 9.705-10.478 18.329-23.688 15.969-32.376-.491-1.806-1.45-3.419-2.98-4.769-18.646-16.459-41.59-27.741-63.252-17.886-10.779 4.904-21.867 10.73-31.783 17.121-.795.512-1.302 1.309-1.596 2.306-1.84 6.232 5.131 20.725 9.053 28.524 1.546 3.074 2.617 5.111 2.483 5.182.917.91 1.254 1.234 1.29 1.257 1.164 1.117 2.354 2.199 3.562 3.249 1.464 1.271 2.959 2.487 4.482 3.642 4.415 3.344 9.067 6.161 13.883 8.208z"/><path fill="#9BD0F0" d="M831.702 41.169h-99.813l-11.396 55.504 120.657-.239-9.448-55.265zm-39.621 30.641h-7.735v7.731h-5.803v-7.731h-7.736v-5.807h7.736v-7.736h5.803v7.736h7.735v5.807z"/><path fill="#9BCFEF" d="M657.643 251.71c-.658 2.639-2.143 15.729-3.954 33.373l5.72 13.345 11.736-25.431c-1.186-11.357-2.129-19.298-2.623-21.287 2.001.003 3.624-1.622 3.624-3.624v-4.191l-8.737-10.697-9.391 11.048v3.84c0 2.002 1.621 3.627 3.625 3.624z"/><path fill="#9BD0F0" d="M272.47 178.949c.347.152.694.298 1.044.431-.349-.14-.697-.283-1.044-.431z"/><path fill="#9BCFEF" d="M87.891 192.03c-4.348-4.295-9.19-9.833-13.152-16.309-9.978-16.307-12.071-36.368-12.071-50.324v-1.359h4.484v.002h35.454l-.397-18.178c12.314 11.679 28.559 18.178 45.434 18.178h4.477v-.002h4.484v1.359c0 18.94-4.589 36.782-12.922 50.234-5.994 9.676-14.502 17.323-18.261 20.568l5.009 3.445h39.905v-84.094c0-4.84-.581-9.538-1.612-14.059h-119.57c-1.162 4.845-1.814 9.881-1.814 15.059v83.095h40.629l-.077-7.615z"/><path fill="#9BD0F0" d="M143.68 175.632c8.333-13.452 12.922-31.294 12.922-50.234v-1.359h-4.484v1.359c0 18.122-4.351 35.124-12.251 47.874-6.146 9.922-15.256 17.722-18.247 20.28-2.034 1.744-4.765 2.625-8.116 2.625h-9.9c-2.933 0-5.504-.935-7.641-2.782-4.993-4.319-12.066-11.294-17.4-20.015-9.431-15.418-11.411-34.603-11.411-47.983v-1.359h-4.484v1.359c0 13.956 2.093 34.017 12.071 50.324 3.962 6.476 8.804 12.014 13.152 16.309 1.836 1.814 3.586 3.412 5.141 4.757 2.975 2.571 6.532 3.875 10.572 3.875h9.9c4.45 0 8.162-1.248 11.032-3.704l.882-.759c3.76-3.244 12.269-10.891 18.262-20.567z"/><path fill="#9BCFEF" d="M566.157 294.504h-5.556v7.407h-7.404v5.557h7.404v7.398h5.556v-7.398h7.404v-5.557h-7.404z"/><circle fill="#9BCFEF" cx="665.387" cy="95.954" r="4.734"/><circle fill="#9BD0F0" cx="715.832" cy="277.057" r="4.612"/><path fill="#9BCFEF" d="M272.47 178.949c.347.148.695.292 1.044.431 8.953 3.581 18.438 4.475 27.971 1.157 4.198-1.461 12.357-7.934 19.873-16.047 9.705-10.478 18.329-23.688 15.969-32.376-.491-1.806-1.45-3.419-2.98-4.769-18.646-16.459-41.59-27.741-63.252-17.886-10.779 4.904-21.867 10.73-31.783 17.121-.794.512-1.302 1.309-1.596 2.306-1.839 6.232 5.13 20.724 9.052 28.523 1.546 3.075 2.618 5.111 2.484 5.183.914.907 1.252 1.232 1.29 1.257 1.164 1.117 2.353 2.199 3.562 3.249 1.464 1.271 2.958 2.487 4.482 3.642 4.415 3.344 9.068 6.161 13.884 8.209z"/><path fill="#9BD0F0" d="M159.702 41.169h-99.814l-11.395 55.504 120.658-.239-9.449-55.265zm-39.621 30.641h-7.735v7.731h-5.803v-7.731h-7.735v-5.807h7.735v-7.736h5.803v7.736h7.735v5.807z"/></g></svg>