<svg xmlns="http://www.w3.org/2000/svg" width="194.468" height="148.181" viewBox="0 0 194.468 148.181"><path d="M40.881 123.305h-9.013c-.493 0-.97.214-1.3.591l-10.258 11.669v-10.521c0-.958-.781-1.739-1.74-1.739h-15.09v-56.75h37.976l.012-3.491h-39.728c-.964 0-1.74.786-1.74 1.751v60.229c0 .959.776 1.746 1.74 1.746h15.09v13.392c0 .724.445 1.373 1.063 1.599.2.095.43.146.676.146.477 0 .954-.215 1.305-.592l12.779-14.541h8.199l.029-3.489zm.494-44.276h-18.15c-.964 0-1.74.781-1.74 1.74s.781 1.745 1.74 1.745h18.114l.036-3.485zm-.158 14.168h-17.992c-.964 0-1.74.786-1.74 1.745 0 .96.781 1.741 1.74 1.741h17.949l.043-3.486zm-.175 14.168h-17.817c-.964 0-1.74.78-1.74 1.74 0 .965.781 1.745 1.74 1.745h17.777l.04-3.485zm112.545-19.06h9.012c.493 0 .971.214 1.301.591l10.258 11.669v-10.521c0-.958.78-1.739 1.74-1.739h15.09v-56.75h-37.977c-.005-1.164-.01-2.327-.012-3.491h39.729c.964 0 1.74.786 1.74 1.751v60.229c0 .959-.776 1.746-1.74 1.746h-15.091v13.392c0 .724-.445 1.373-1.063 1.599-.199.095-.43.146-.676.146-.478 0-.955-.215-1.306-.592l-12.778-14.541h-8.199l-.028-3.489zm-.494-44.275h18.149c.964 0 1.74.781 1.74 1.74s-.781 1.745-1.74 1.745h-18.114l-.035-3.485zm.157 14.167h17.992c.964 0 1.74.786 1.74 1.745 0 .959-.781 1.741-1.74 1.741h-17.949l-.043-3.486zm.175 14.168h17.817c.964 0 1.74.78 1.74 1.74 0 .965-.781 1.745-1.74 1.745h-17.776l-.041-3.485z" fill="#BFDDED"/><path fill="#9BD1F1" d="M129.178 1.002v23.843h23.843"/><path fill="#26749C" d="M154.154 140.176h-106.464v-140.174h16.69c.552 0 1 .447 1 1 0 .553-.448 1-1 1h-14.69v136.174h102.463v-11.188c0-.553.447-1 1-1 .552 0 1 .447 1 1v13.188zm-1.303-35.975c.417 0 .807.048 1.17.135v-65.617c0-3.279-.448-5.932-1-5.932s-1 2.653-1 5.932v65.555c.265-.043.539-.073.83-.073zm1.17-69.213h-2v-9.728l-23.257-23.258h-54.865v-2h55.693l24.429 24.429zm-84.886-32.99c-.14 0-.27-.021-.39-.07-.12-.05-.23-.13-.32-.22-.19-.19-.29-.44-.29-.71 0-.13.02-.26.07-.38s.13-.23.22-.32c.09-.1.2-.17.32-.22l.19-.06c.19-.041.4-.01.58.06.12.05.23.12.32.22.1.09.17.2.22.32.05.12.08.25.08.38 0 .271-.11.521-.3.71s-.439.29-.7.29"/><path fill="#26749C" d="M63.021 34.904h17.999v2h-17.999zm0-16h34v2h-34zm0 4h20v2h-20z"/><path fill="#F47723" d="M100.616 78.65c-.074.297-2.187 10.174-2.281 10.834h5.833c-.094-.66-1.733-10.537-1.808-10.834.32 0 .582-.26.582-.581v-1.454l-1.479-1.745-1.429 1.745v1.454c.001.322.26.581.582.581"/><path fill="#26749C" d="M101.501 94.789c-17.093 0-31-13.906-31-31s13.907-31 31-31 31 13.906 31 31-13.907 31-31 31m0-60c-15.991 0-29 13.01-29 29s13.009 29 29 29c15.99 0 29-13.01 29-29s-13.009-29-29-29m0 56c-14.888 0-27-12.112-27-27s12.112-27 27-27 27 12.112 27 27-12.112 27-27 27m0-52c-13.785 0-25 11.215-25 25s11.215 25 25 25 25-11.215 25-25-11.214-25-25-25m-21 25h-2c0-12.683 10.318-23 23-23v2c-11.58 0-21 9.421-21 21m24.004-21.001c-.271 0-.521-.101-.71-.29-.19-.19-.29-.44-.29-.71 0-.13.02-.26.069-.38.051-.12.13-.23.221-.33.27-.27.72-.36 1.09-.21.12.05.229.12.319.21.101.1.171.21.221.33s.08.25.08.38-.03.26-.08.38-.12.23-.221.33c-.09.09-.199.16-.319.22-.12.05-.25.07-.38.07m-25 25c-.14 0-.27-.021-.39-.07-.12-.05-.23-.13-.32-.22-.09-.1-.17-.2-.22-.33-.05-.12-.08-.25-.08-.38 0-.26.11-.521.3-.71.23-.229.58-.33.9-.27l.19.06.17.09.15.12c.19.189.3.45.3.71 0 .13-.03.26-.08.38-.05.13-.12.23-.22.33-.19.19-.44.29-.7.29M123.417 84.289l7.042 7.042-1.414 1.414-7.042-7.042zm30.264 35.695c-1.068 0-2.073-.416-2.828-1.172l-24.714-24.714 5.657-5.655 24.713 24.713c.756.756 1.172 1.76 1.172 2.828s-.416 2.073-1.172 2.828c-.755.756-1.759 1.172-2.828 1.172m-24.714-25.885l23.3 23.3c.756.756 2.073.756 2.828 0 .378-.377.586-.879.586-1.414 0-.533-.208-1.035-.586-1.414l-23.299-23.299-2.829 2.827zm24.008 16.935l1.414 1.414-4.245 4.245-1.414-1.414zm-19.068-19.066l1.414 1.414-4.244 4.244-1.414-1.414zm-36.891-19.223c-.552 0-1-.447-1-1v-3.925c0-.553.448-1 1-1s1 .447 1 1v3.925c0 .553-.448 1-1 1m8.77-.072c-.552 0-1-.447-1-1v-4.527l.298-.294c.541-.534.679-.761.71-.848l1.933-3.95 1.91-.955.359-1.787-.333.052h-1.188l.204-1.171c.15-.871.229-1.649.229-2.316v-.326c.007-1.104-.219-2.144-.653-3.079l-.129-.272c-.496-1.001-1.222-1.895-2.102-2.589-1.329-1.048-2.928-1.608-4.623-1.62h-.05c-1.947 0-3.805.781-5.234 2.201-1.479 1.469-2.329 3.491-2.329 5.546v.139c0 .685.066 1.471.198 2.338l.174 1.149h-1.45l.499 1.746 1.691.977 1.821 3.852c.192.506 1.239 1.358 1.865 1.866l.614.507c.316.27.722.422 1.141.426h1.879c.552 0 1 .448 1 1 0 .553-.448 1-1 1h-1.893c-.896-.01-1.754-.332-2.426-.905l-.577-.475c-1.03-.838-2.095-1.705-2.445-2.642l-1.521-3.209-1.851-1.068-.845-3.096c0-.82.501-1.525 1.214-1.825-.061-.585-.092-1.135-.092-1.641v-.139c0-2.584 1.064-5.123 2.92-6.966 1.822-1.809 4.162-2.805 6.706-2.781 2.145.015 4.166.724 5.849 2.049 1.11.877 2.028 2.007 2.654 3.269l.158.334c.551 1.188.842 2.523.833 3.849v.385c0 .499-.036 1.045-.105 1.63.244.101.469.251.659.447.369.38.565.882.551 1.411l-.02.169-.588 2.916-2.18 1.09-1.597 3.256c-.139.38-.469.786-.842 1.178v3.699c.004.553-.445 1-.996 1M80.997 79.096l-.659-1.889 13.185-4.606 1.668-3.091h1.693v2h-.499l-1.469 2.724zm20.491-5.953l3.811-2.133c.482-.269 1.091-.097 1.36.384.271.481.1 1.091-.383 1.36l-4.788 2.682-4.957-2.775c-.481-.271-.654-.879-.384-1.361.269-.481.881-.653 1.361-.384M122.888 78.611l-14.808-4.318-1.7-2.783h-.532v-2h1.654l1.882 3.081 14.064 4.1zm-18.783.167c-.274 0-.546-.111-.744-.331l-1.873-2.081-1.873 2.081c-.369.41-1.002.443-1.412.074-.411-.369-.444-1.002-.075-1.412l3.36-3.733 3.359 3.733c.369.41.337 1.043-.074 1.412-.19.172-.431.257-.668.257m44.395 65.402h-104.812v-139.175c0-.553.448-1 1-1s1 .447 1 1v137.175h102.812c.552 0 1 .446 1 1 0 .552-.449 1-1 1m-4.003 4.001h-104.811v-139.174c0-.553.448-1 1-1s1 .447 1 1v137.174h102.811c.552 0 1 .447 1 1 0 .553-.449 1-1 1M63.021 38.907h10.995v2h-10.995zm4.003 68.041h64.026v2h-64.026zm0 4.002h64.026v2h-64.026zm0 4.003h64.026v2h-64.026zm0 4.002h64.026v2h-64.026zm-2.001 10.006h24.002v2h-24.002zm87.998-89.971c-.552 0-1-.447-1-1v-.138c0-.552.448-1 1-1s1 .448 1 1v.138c0 .553-.448 1-1 1m0 85.051c-.552 0-1-.447-1-1v-.138c0-.552.448-1 1-1s1 .448 1 1v.138c0 .553-.448 1-1 1"/></svg>