<svg xmlns="http://www.w3.org/2000/svg" width="120" height="42" viewBox="0 -0.288 120 42" enable-background="new 0 -0.288 120 42"><path fill="#595A5C" d="M20.379 22.444v-19.35l-8.175 19.351h-1.882l-8.146-19.351v19.351h-2.176v-21.733h3.382l7.91 18.497 7.882-18.497h3.381v21.732h-2.176zm7.82-7.323c.177 3.177 2.971 5.706 6.264 5.706 2.44 0 4.705-1.471 5.617-3.677h2.264c-1.029 3.058-4.176 5.677-7.822 5.677-4.764 0-8.499-3.735-8.499-8.5 0-4.676 3.676-8.351 8.352-8.351 4.764 0 8.381 3.44 8.381 9.145h-14.557zm6.146-7.146c-3.059 0-5.5 2.088-6.088 5.176h12.323c-.736-3.205-3.117-5.176-6.235-5.176m25.671 14.469v-2.913c-1.617 2.325-3.44 3.294-6.117 3.294-4.97 0-8.764-3.648-8.764-8.411 0-4.793 3.706-8.44 8.559-8.44 2.529 0 4.735 1.028 6.322 2.939v-8.201h2.175v21.732h-2.175zm-6.381-14.469c-3.5 0-6.293 2.823-6.293 6.352 0 3.676 2.823 6.5 6.5 6.5 3.44 0 6.263-2.941 6.263-6.471s-2.912-6.381-6.47-6.381"/><path fill="#A8AAAD" d="M83.1 22.444l-3.146-7.323h-10.117l-3.177 7.323h-2.293l9.32-21.732h2.442l9.351 21.732h-2.38zm-8.175-19.262l-4.265 9.969h8.438l-4.173-9.969zm42.577 19.262l-4.324-6.44-4.353 6.44h-2.47l5.588-8.206-5.588-7.881h2.47l4.353 6.205 4.324-6.205h2.498l-5.616 7.881 5.616 8.206h-2.498z"/><path fill="#127DC2" d="M83.193 34.94c-.312 0-.584-.112-.811-.343-.221-.231-.334-.505-.334-.812v-2.563c0-1.729-.59-3.166-1.812-4.396-1.237-1.226-2.678-1.819-4.401-1.819-1.733 0-3.178.592-4.419 1.816l-.297.318-.271-.285c-1.231-1.227-2.674-1.822-4.406-1.822-1.736 0-3.176.595-4.398 1.82-1.227 1.236-1.822 2.674-1.822 4.397v2.306c0 .322-.117.598-.351.822-.212.216-.479.323-.783.328h-48.26c-.62-2.045-2.519-3.536-4.767-3.536-2.753 0-4.983 2.231-4.983 4.983s2.23 4.98 4.983 4.98c2.326 0 4.273-1.596 4.823-3.751h48.203v.011l.085-.011h.08v-.007c.979-.044 1.812-.404 2.521-1.12.75-.737 1.129-1.646 1.129-2.702v-2.304c0-.942.369-1.744 1.066-2.313.659-.537 1.489-.812 2.475-.812.979 0 1.761.283 2.314.838.549.555.826 1.327.826 2.288v2.679c0 .354.287.637.641.637h1.279c.271 0 .506-.17.598-.41.034-.079.053-.166.053-.258v-2.678c0-.854.679-1.6 1.369-2.291.558-.553 1.334-.835 2.313-.835.985 0 1.815.273 2.472.812.541.445.879 1.029 1.004 1.713h-4.213c-.354 0-.641.285-.641.638v1.466c0 .354.286.639.641.639h4.274v.425c0 1.062.375 1.948 1.138 2.708.531.543 1.154.893 1.854 1.043.108.074.608.081.747.081l.277-.013c6.193 0 9.979.244 11.563-1.353 1.233-1.237 1.223-2.403 1.221-3.897v-9.779c4.925-.686 8.736-4.914 8.736-10.029v-10.65h-6.24v2.809h3.429v7.838c0 4.041-3.281 7.328-7.318 7.328-4.041 0-7.327-3.287-7.327-7.328v-7.838h3.435v-2.809h-6.242v10.647c0 5.154 3.869 9.415 8.855 10.046l.043 10.388c-.043.635-.163 1.066-.482 1.39-.965.969-4.857.614-9.906.614h.355l-.318-.044zm-77.132 3.613c-1.327 0-2.4-1.073-2.4-2.397s1.073-2.398 2.4-2.398c1.325 0 2.398 1.074 2.398 2.398-.001 1.323-1.074 2.397-2.398 2.397"/></svg>