<svg xmlns="http://www.w3.org/2000/svg" width="48" height="48" viewBox="0 0 48 48"><circle fill="#147EC3" cx="24" cy="24" r="24"/><path fill="#F7FAFC" d="M28.754 32.207c-.191 0-.355-.07-.495-.209-.135-.143-.202-.309-.202-.498v-1.566c0-1.059-.363-1.938-1.108-2.688-.759-.748-1.638-1.111-2.691-1.111-1.061 0-1.943.363-2.701 1.111l-.182.192-.166-.174c-.754-.75-1.635-1.113-2.693-1.113-1.062 0-1.941.361-2.689 1.111-.75.756-1.115 1.635-1.115 2.689v1.41c0 .195-.07.363-.213.502-.131.131-.293.199-.479.199h-2.09c-.379-1.248-1.539-2.16-2.912-2.16-1.684 0-3.048 1.363-3.048 3.047 0 1.682 1.364 3.045 3.048 3.045 1.421 0 2.611-.977 2.947-2.293h2.052v.004l.053-.004h.049v-.006c.597-.025 1.106-.246 1.54-.685.458-.452.691-1.008.691-1.649v-1.41c0-.578.225-1.066.65-1.416.403-.328.91-.496 1.514-.496.6 0 1.074.174 1.414.514.336.338.506.812.506 1.398v1.637c0 .217.176.389.39.389h.784c.166 0 .309-.104.365-.25l.032-.158v-1.635c0-.522.415-.979.837-1.399.34-.341.815-.513 1.414-.513.602 0 1.111.166 1.512.496.33.271.537.629.613 1.047h-2.576c-.217 0-.392.177-.392.392v.896c0 .217.175.391.392.391h2.613v.26c0 .648.229 1.191.695 1.654.324.334.705.547 1.133.637.066.047.373.053.457.053l.171-.008c3.786 0 6.099.148 7.069-.826.754-.76.746-1.469.744-2.385v-5.979c3.013-.418 5.342-3.006 5.342-6.132v-6.509h-3.816v1.717h2.098v4.792c0 2.47-2.006 4.479-4.473 4.479-2.473 0-4.48-2.009-4.48-4.479v-4.792h2.101v-1.717h-3.815v6.509c0 3.151 2.364 5.754 5.414 6.142l.025 6.35c-.025.389-.1.652-.297.85-.588.593-2.969.375-6.055.375h.218l-.195-.028zm-19.736 2.207c-.812 0-1.468-.656-1.468-1.465 0-.811.656-1.469 1.468-1.469.809 0 1.466.658 1.466 1.469-.001.809-.658 1.465-1.466 1.465"/></svg>