<svg xmlns="http://www.w3.org/2000/svg" width="68.5" height="77.739" viewBox="0 0 68.5 77.739"><path d="M61.349 22.581l3.789-3.789-4.465-4.463-3.627 3.628c-5.292-4.731-12.058-7.844-19.515-8.557v-3.125h1.607c1.733 0 3.138-1.405 3.138-3.138s-1.403-3.137-3.137-3.137h-9.527c-1.733 0-3.138 1.405-3.138 3.138s1.404 3.138 3.138 3.138h1.608v3.105c-17.47 1.539-31.22 16.244-31.22 34.107 0 18.886 15.364 34.251 34.25 34.251s34.25-15.365 34.25-34.251c0-7.867-2.674-15.118-7.151-20.907zm-27.099 50.158c-16.129 0-29.25-13.122-29.25-29.251 0-16.128 13.121-29.249 29.25-29.249 16.129 0 29.25 13.121 29.25 29.249 0 16.129-13.122 29.251-29.25 29.251zm6.571-50.51l-6.293 21.26 15.486-15.388c-2.161-2.101-4.686-3.866-7.541-5.177-.547-.251-1.096-.484-1.652-.695z" fill="#F47722"/></svg>